<svg width="120px" height="121px" viewBox="0 0 120 121" version="1.1" xmlns="http://www.w3.org/2000/svg" xmlns:xlink="http://www.w3.org/1999/xlink">
  <g stroke="none" stroke-width="1" fill="none" fill-rule="evenodd">
    <g transform="translate(29.000000, 32.000000)">
      <path d="M27.6,17.5 C26.2,13.2 32.4,11.2 33.7,15.3 L34.2,16.7 C37.4,13 37.3,7.4 33.8,3.8 C30.1,0.1 24.2,0.1 20.5,3.8 L18.3,6 L16.1,3.8 C12.4,0.1 6.5,0.1 2.8,3.8 C-0.9,7.5 -0.9,13.4 2.8,17.1 L18.3,32.6 L29.1,21.8 L27.6,17.5 Z" fill="#FF5456"></path>
      <path d="M34.3,16.6 C37.5,12.9 37.4,7.3 33.9,3.7 C30.2,8.8817842e-16 24.3,8.8817842e-16 20.6,3.7 L18.3,6 L16.1,3.8 C12.4,0.1 6.5,0.1 2.8,3.8 C-0.9,7.5 -0.9,13.4 2.8,17.1 L18.3,32.6 L29.1,21.8" stroke="#101010" stroke-width="2"></path>
      <path d="M6.6,13.3 C5.8,12.5 5.4,11.5 5.4,10.4 C5.4,9.3 5.8,8.3 6.6,7.5 C7.4,6.7 8.4,6.3 9.5,6.3 C10.6,6.3 11.6,6.7 12.4,7.5" stroke="#FFFFFF" stroke-width="2"></path>
      <path d="M36.6,12.2 C38.3,13.6 40.8,16.2 41.9,18.7 C43.7,23.2 43.5,28 38.1,25.7 C37.7,25.5 37.3,25.1 37.1,24.7 L33.8,15.2 C32.4,11.1 26.2,13.1 27.7,17.4 L32.4,31.6 C33.1,33.9 36.9,40.1 42,45.4" stroke="#101010" stroke-width="2"></path>
      <rect stroke="#101010" stroke-width="1.99994153" transform="translate(50.246105, 45.989135) rotate(235.408850) translate(-50.246105, -45.989135) " x="45.0962556" y="36.3394171" width="10.2996989" height="19.2994358"></rect>
      <path d="M33.1,2.9 C33.1,2.9 51.8,9.1 51.6,24 C51.5,38.8 52.4,38.2 52.4,38.2" stroke="#101010" stroke-width="2"></path>
    </g>
  </g>
</svg>