<svg width="120px" height="120px" viewBox="0 -20 120 120" version="1.1" xmlns="http://www.w3.org/2000/svg" xmlns:xlink="http://www.w3.org/1999/xlink">
  <g stroke="none" stroke-width="1" fill="none" fill-rule="evenodd" transform="translate(0.000000, -20.000000)">
    <g transform="translate(26.000000, 32.000000)">
      <path d="M47.1,3.3 C44,0.2 39,0.2 35.9,3.3 L34,5.2 L32.1,3.3 C29,0.2 24,0.2 21,3.3 C17.9,6.4 17.9,11.4 21,14.4 L34,27.4 L47,14.4 C50.1,11.4 50.1,6.4 47.1,3.3 Z" fill="#FF5456"></path>
      <path d="M22.9,35.5 C19,32.6 22.4,34.8 13.8,26.6 C11.7,24.6 8.5,27.2 10.5,29.1 L13.8,33.1 C13.8,33.1 15.4,36 14.7,36.8 C14.1,37.4 12.4,36.9 10.3,35.3 C9.6,34.7 9.6,34.8 5.4,28.7 C4.8,27.9 4.5,26.9 4.5,25.9 L4.5,20.6 C4.5,17.8 0.1,17.8 0.1,20.6 C-1.11022302e-16,26 -0.3,28.2 1.6,31 C7.8,40.1 4.7,38.3 15.6,45.2 C19.4,47.6 19,50.4 19,54.9 C19,56.1 20,57 21.2,57 L27.6,57 C28.8,57 29.8,56.1 29.8,54.9 L29.8,48 C29.8,43 29.2,38.6 22.9,35.5 Z" stroke="#101010" stroke-width="2"></path>
      <path d="M45.8,35.5 C49.7,32.6 46.3,34.8 54.9,26.6 C57,24.6 60.2,27.2 58.2,29.1 L54.9,33.1 C54.9,33.1 53.3,36 54,36.8 C54.6,37.4 56.3,36.9 58.4,35.3 C59.1,34.7 59.1,34.8 63.3,28.7 C63.9,27.9 64.2,26.9 64.2,25.9 L64.2,20.6 C64.2,17.8 68.6,17.8 68.6,20.6 C68.6,26 69,28.2 67,31 C60.8,40.1 63.9,38.3 53,45.2 C49.2,47.6 49.6,50.4 49.6,54.9 C49.6,56.1 48.6,57 47.4,57 L41,57 C39.8,57 38.8,56.1 38.8,54.9 L38.8,48 C38.8,43 39.5,38.6 45.8,35.5 Z" stroke="#101010" stroke-width="2"></path>
      <path d="M47.1,3.3 C44,0.2 39,0.2 35.9,3.3 L34,5.2 L32.1,3.3 C29,0.2 24,0.2 21,3.3 C17.9,6.4 17.9,11.4 21,14.4 L34,27.4 L47,14.4 C50.1,11.4 50.1,6.4 47.1,3.3 Z" stroke="#101010" stroke-width="2"></path>
      <path d="M24.3,11.3 C23.7,10.7 23.3,9.8 23.3,8.9 C23.3,8 23.7,7.2 24.3,6.5 C24.9,5.9 25.8,5.5 26.7,5.5 C27.6,5.5 28.4,5.9 29.1,6.5" stroke="#FFFFFF" stroke-width="2"></path>
    </g>
  </g>
</svg>