<svg width="120px" height="120px" viewBox="0 0 120 120" version="1.1" xmlns="http://www.w3.org/2000/svg" xmlns:xlink="http://www.w3.org/1999/xlink">
  <g stroke="none" stroke-width="1" fill="none" fill-rule="evenodd">
    <g transform="translate(34.000000, 34.000000)">
      <path d="M48,15.9 L48,9 C48,6.3 45.7,4 42.9,4 L5.1,4 C2.3,4 0,6.3 0,9.1 L0,16 L48,16 L48,15.9 Z" fill="#FB3A45"></path>
      <path d="M48,22.9 L48,9.1 C48,6.3 45.7,4 42.9,4 L5.1,4 C2.3,4 0,6.3 0,9.1 L0,47 C0,49.7 2.3,52 5.1,52 L31,52" stroke="#101010" stroke-width="2"></path>
      <path d="M0.2,15.6 L47.8,15.6" stroke="#101010" stroke-width="2"></path>
      <path d="M15.3,0 L15.3,8.7" stroke="#101010" stroke-width="2"></path>
      <path d="M32.6,0 L32.6,8.7" stroke="#101010" stroke-width="2"></path>
      <g transform="translate(21.000000, 25.000000)" id="Shape">
        <path d="M28.7,2.9 C25.6,-0.2 20.6,-0.2 17.6,2.9 L15.7,4.8 L13.8,2.9 C10.7,-0.2 5.7,-0.2 2.7,2.9 C-0.4,6 -0.4,11 2.7,14 L15.7,27 L28.7,14 C31.8,10.9 31.8,5.9 28.7,2.9 Z" fill="#FB3A45"></path>
        <path d="M28.7,2.9 C25.6,-0.2 20.6,-0.2 17.6,2.9 L15.7,4.8 L13.8,2.9 C10.7,-0.2 5.7,-0.2 2.7,2.9 C-0.4,6 -0.4,11 2.7,14 L15.7,27 L28.7,14 C31.8,10.9 31.8,5.9 28.7,2.9 Z" stroke="#101010" stroke-width="2"></path>
        <path d="M5.9,10.8 C5.3,10.2 4.9,9.3 4.9,8.4 C4.9,7.5 5.3,6.7 5.9,6 C6.5,5.4 7.4,5 8.3,5 C9.2,5 10,5.4 10.7,6" stroke="#FFFFFF" stroke-width="2"></path>
      </g>
    </g>
  </g>
</svg>